<svg width="16" height="16" viewBox="0 0 16 16" fill="none" xmlns="http://www.w3.org/2000/svg">
<path d="M9 2.00001C8.24152 1.99791 7.5104 2.28319 6.95378 2.79843C6.39717 3.31367 6.05638 4.02063 6 4.77701C5.67148 4.47475 5.27965 4.24962 4.85307 4.11803C4.4265 3.98644 3.97593 3.9517 3.53423 4.01636C3.09252 4.08102 2.67082 4.24344 2.29985 4.49178C1.92889 4.74012 1.61803 5.06811 1.38993 5.45185C1.16183 5.83559 1.02225 6.26539 0.981359 6.70993C0.940468 7.15446 0.999299 7.60252 1.15356 8.02143C1.30783 8.44034 1.55364 8.81954 1.87307 9.13139C2.1925 9.44323 2.5775 9.67986 3 9.82401V12C3 12.2652 3.10536 12.5196 3.29289 12.7071C3.48043 12.8947 3.73478 13 4 13H10C10.2652 13 10.5196 12.8947 10.7071 12.7071C10.8946 12.5196 11 12.2652 11 12V11L14 13V7.00001L11 9.00001V7.23001C11.4506 6.8245 11.7678 6.29197 11.9098 5.70261C12.0518 5.11324 12.0119 4.49469 11.7953 3.92845C11.5788 3.36222 11.1958 2.87487 10.6968 2.53062C10.1978 2.18637 9.60622 2.00138 9 2.00001Z" fill="#8DA5F3"/>
<path d="M1.125 9.25H7.875V13.75H1.125V9.25Z" stroke="#E0E0E0" stroke-linejoin="round"/>
</svg>
